<svg data-v-423bf9ae="" xmlns="http://www.w3.org/2000/svg" viewBox="0 0 434 107" class="iconLeft"><!----><!----><!----><g data-v-423bf9ae="" id="81e47cff-b09e-49b3-9fc4-b08f43f493df" fill="#2F190E" transform="matrix(4.4742726633647205,0,0,4.4742726633647205,78.78035526946664,6.442805710109859)"><path d="M2.93 12.63L2.93 12.63L2.93 12.63Q2.93 12.94 3.08 12.94L3.08 12.94L3.08 12.94Q3.16 12.94 3.89 12.57L3.89 12.57L4.16 13.09L4.16 13.09Q2.90 14.22 1.93 14.22L1.93 14.22L1.93 14.22Q1.33 14.22 1.02 13.82L1.02 13.82L1.02 13.82Q0.70 13.41 0.70 12.81L0.70 12.81L0.70 12.81Q0.70 12.21 1.38 9.51L1.38 9.51L1.38 9.51Q2.06 6.82 2.13 5.81L2.13 5.81L2.13 5.81Q2.13 5.59 1.98 5.27L1.98 5.27L1.98 5.27Q1.83 4.96 1.68 4.76L1.68 4.76L1.54 4.56L1.58 4.35L1.58 4.35Q2.38 4.12 4.21 4.12L4.21 4.12L4.21 4.12Q4.38 4.44 4.38 5.05L4.38 5.05L4.38 5.05Q4.38 5.66 3.65 8.57L3.65 8.57L3.65 8.57Q2.93 11.48 2.93 12.63ZM6.74 15.57L6.74 15.57L6.74 15.57Q6.27 15.85 6.27 16.11L6.27 16.11L6.27 16.11Q6.27 16.38 6.57 16.38L6.57 16.38L6.57 16.38Q6.87 16.38 7.25 16.09L7.25 16.09L7.25 16.09Q7.63 15.81 7.88 15.16L7.88 15.16L7.88 15.16Q7.21 15.29 6.74 15.57ZM10.60 7.94L10.89 7.95L10.89 7.95Q10.95 8.01 10.95 8.20L10.95 8.20L10.95 8.20Q10.95 8.39 10.92 8.60L10.92 8.60L10.92 8.60Q10.89 8.82 10.82 9.58L10.82 9.58L10.82 9.58Q10.75 10.33 10.68 10.89L10.68 10.89L10.68 10.89Q9.97 17.19 6.85 17.19L6.85 17.19L6.85 17.19Q6.34 17.19 5.93 16.93L5.93 16.93L5.93 16.93Q5.52 16.66 5.52 16.24L5.52 16.24L5.52 16.24Q5.52 15.68 6.20 15.22L6.20 15.22L6.20 15.22Q6.89 14.76 8.05 14.50L8.05 14.50L8.05 14.50Q8.05 14.49 8.13 14.11L8.13 14.11L8.13 14.11Q8.22 13.73 8.25 13.50L8.25 13.50L8.25 13.50Q7.41 14.11 6.67 14.11L6.67 14.11L6.67 14.11Q5.94 14.11 5.47 13.54L5.47 13.54L5.47 13.54Q5.00 12.96 5.00 11.70L5.00 11.70L5.00 11.70Q5.00 10.05 5.74 8.95L5.74 8.95L5.74 8.95Q6.48 7.85 7.70 7.85L7.70 7.85L7.70 7.85Q8.39 7.85 9.06 8.19L9.06 8.19L9.06 8.19Q9.77 7.94 10.60 7.94L10.60 7.94ZM8.33 8.68L8.33 8.68L8.33 8.68Q7.73 8.68 7.38 9.65L7.38 9.65L7.38 9.65Q7.03 10.63 7.03 11.81L7.03 11.81L7.03 11.81Q7.03 12.99 7.56 12.99L7.56 12.99L7.56 12.99Q7.91 12.99 8.39 12.73L8.39 12.73L8.39 12.73Q8.78 10.37 8.95 8.85L8.95 8.85L8.95 8.85Q8.55 8.68 8.33 8.68ZM11.83 14.10L11.83 14.10L11.56 14.10L11.56 14.10Q11.56 13.44 11.96 11.58L11.96 11.58L11.96 11.58Q12.36 9.72 12.36 9.46L12.36 9.46L12.36 9.46Q12.36 9.00 11.97 8.48L11.97 8.48L11.84 8.32L11.86 8.13L11.86 8.13Q12.61 7.92 14.28 7.92L14.28 7.92L14.28 7.92Q14.46 8.16 14.48 8.79L14.48 8.79L14.48 8.79Q15.69 7.85 16.53 7.85L16.53 7.85L16.53 7.85Q17.04 7.85 17.34 8.20L17.34 8.20L17.34 8.20Q17.64 8.55 17.64 9.08L17.64 9.08L17.64 9.08Q17.64 9.60 17.32 10.89L17.32 10.89L17.32 10.89Q17.00 12.18 17.00 12.62L17.00 12.62L17.00 12.62Q17.00 13.06 17.11 13.06L17.11 13.06L17.11 13.06Q17.19 13.06 17.70 12.80L17.70 12.80L17.86 12.71L18.12 13.20L18.12 13.20Q17.99 13.31 17.78 13.48L17.78 13.48L17.78 13.48Q17.57 13.65 17.00 13.94L17.00 13.94L17.00 13.94Q16.44 14.22 15.99 14.22L15.99 14.22L15.99 14.22Q14.97 14.22 14.97 13.06L14.97 13.06L14.97 13.06Q14.97 12.57 15.28 11.26L15.28 11.26L15.28 11.26Q15.60 9.94 15.60 9.56L15.60 9.56L15.60 9.56Q15.60 9.18 15.36 9.18L15.36 9.18L15.36 9.18Q14.95 9.18 14.36 9.53L14.36 9.53L14.36 9.53Q14.32 9.77 14.08 10.79L14.08 10.79L14.08 10.79Q13.59 12.99 13.59 13.90L13.59 13.90L13.59 13.90Q13.10 14.10 11.83 14.10ZM21.46 8.72L21.46 8.72L21.46 8.72Q21.46 9.31 21.08 10.75L21.08 10.75L21.08 10.75Q20.71 12.18 20.71 12.62L20.71 12.62L20.71 12.62Q20.71 13.06 20.83 13.06L20.83 13.06L20.83 13.06Q20.92 13.06 21.48 12.80L21.48 12.80L21.64 12.71L21.88 13.20L21.88 13.20Q21.76 13.31 21.55 13.48L21.55 13.48L21.55 13.48Q21.34 13.65 20.76 13.94L20.76 13.94L20.76 13.94Q20.19 14.22 19.70 14.22L19.70 14.22L19.70 14.22Q19.21 14.22 18.93 13.92L18.93 13.92L18.93 13.92Q18.65 13.62 18.65 13.11L18.65 13.11L18.65 13.11Q18.65 12.60 19.00 11.29L19.00 11.29L19.00 11.29Q19.35 9.98 19.35 9.59L19.35 9.59L19.35 9.59Q19.35 9.00 18.98 8.48L18.98 8.48L18.86 8.32L18.87 8.13L18.87 8.13Q19.61 7.92 21.28 7.92L21.28 7.92L21.28 7.92Q21.46 8.13 21.46 8.72ZM19.87 6.39L19.87 6.39L19.87 6.39Q19.59 6.12 19.59 5.66L19.59 5.66L19.59 5.66Q19.59 5.19 19.97 4.84L19.97 4.84L19.97 4.84Q20.36 4.49 20.86 4.49L20.86 4.49L20.86 4.49Q21.36 4.49 21.64 4.77L21.64 4.77L21.64 4.77Q21.92 5.05 21.92 5.51L21.92 5.51L21.92 5.51Q21.92 5.96 21.52 6.31L21.52 6.31L21.52 6.31Q21.13 6.66 20.64 6.66L20.64 6.66L20.64 6.66Q20.15 6.66 19.87 6.39ZM26.70 12.22L26.70 12.22L26.70 12.22Q26.70 13.10 25.92 13.66L25.92 13.66L25.92 13.66Q25.14 14.22 24.15 14.22L24.15 14.22L24.15 14.22Q23.16 14.22 22.57 13.80L22.57 13.80L22.57 13.80Q21.99 13.38 21.99 13.06L21.99 13.06L21.99 13.06Q21.99 12.87 22.48 12.43L22.48 12.43L22.48 12.43Q22.97 11.98 23.31 11.89L23.31 11.89L23.31 11.89Q24.01 12.40 24.46 13.52L24.46 13.52L24.46 13.52Q24.98 13.48 24.98 13.03L24.98 13.03L24.98 13.03Q24.98 12.39 23.84 11.21L23.84 11.21L23.84 11.21Q22.71 10.02 22.71 9.32L22.71 9.32L22.71 9.32Q22.71 8.62 23.34 8.24L23.34 8.24L23.34 8.24Q23.97 7.85 24.86 7.85L24.86 7.85L24.86 7.85Q25.75 7.85 26.19 8.17L26.19 8.17L26.19 8.17Q26.64 8.48 26.64 9.02L26.64 9.02L26.64 9.02Q26.64 9.56 25.79 10.51L25.79 10.51L25.79 10.51Q25.89 10.61 26.04 10.77L26.04 10.77L26.04 10.77Q26.19 10.93 26.45 11.38L26.45 11.38L26.45 11.38Q26.70 11.83 26.70 12.22ZM25.35 10.02L25.35 10.02Q25.94 9.52 25.94 9.03L25.94 9.03L25.94 9.03Q25.94 8.54 25.27 8.54L25.27 8.54L25.27 8.54Q24.95 8.54 24.74 8.67L24.74 8.67L24.74 8.67Q24.53 8.81 24.53 8.97L24.53 8.97L24.53 8.97Q24.53 9.28 25.14 9.84L25.14 9.84L25.35 10.02ZM32.65 14.22L32.65 14.22Q32.02 14.22 31.59 13.70L31.59 13.70L31.59 13.70Q31.16 13.17 31.16 12.40L31.16 12.40L31.16 12.40Q31.16 11.63 31.36 9.69L31.36 9.69L31.36 9.69Q31.56 7.74 31.56 6.92L31.56 6.92L31.56 6.92Q31.56 6.09 31.37 5.63L31.37 5.63L30.80 4.56L30.86 4.35L30.86 4.35Q31.99 4.12 33.67 4.12L33.67 4.12L33.67 4.12Q33.81 4.65 33.81 5.75L33.81 5.75L33.81 5.75Q33.81 6.86 33.54 8.97L33.54 8.97L33.54 8.97Q33.26 11.07 33.26 11.77L33.26 11.77L33.26 11.77Q33.26 12.46 33.70 12.46L33.70 12.46L33.70 12.46Q34.13 12.46 34.81 11.72L34.81 11.72L34.81 11.72Q35.49 10.98 36.11 9.77L36.11 9.77L36.11 9.77Q36.72 8.55 36.86 7.43L36.86 7.43L35.38 6.57L35.38 6.57Q35.49 5.50 35.90 4.87L35.90 4.87L35.90 4.87Q36.26 4.31 36.50 4.16L36.50 4.16L36.60 4.09L36.60 4.09Q37.45 4.09 37.89 4.54L37.89 4.54L37.89 4.54Q38.33 4.98 38.33 5.60L38.33 5.60L38.33 5.60Q38.33 7.13 37.42 9.17L37.42 9.17L37.42 9.17Q36.51 11.21 35.15 12.72L35.15 12.72L35.15 12.72Q33.80 14.22 32.65 14.22L32.65 14.22ZM41.10 8.72L41.10 8.72L41.10 8.72Q41.10 9.31 40.73 10.75L40.73 10.75L40.73 10.75Q40.35 12.18 40.35 12.62L40.35 12.62L40.35 12.62Q40.35 13.06 40.47 13.06L40.47 13.06L40.47 13.06Q40.56 13.06 41.12 12.80L41.12 12.80L41.29 12.71L41.52 13.20L41.52 13.20Q41.40 13.31 41.19 13.48L41.19 13.48L41.19 13.48Q40.98 13.65 40.40 13.94L40.40 13.94L40.40 13.94Q39.83 14.22 39.34 14.22L39.34 14.22L39.34 14.22Q38.85 14.22 38.57 13.92L38.57 13.92L38.57 13.92Q38.29 13.62 38.29 13.11L38.29 13.11L38.29 13.11Q38.29 12.60 38.64 11.29L38.64 11.29L38.64 11.29Q38.99 9.98 38.99 9.59L38.99 9.59L38.99 9.59Q38.99 9.00 38.63 8.48L38.63 8.48L38.50 8.32L38.51 8.13L38.51 8.13Q39.26 7.92 40.92 7.92L40.92 7.92L40.92 7.92Q41.10 8.13 41.10 8.72ZM39.51 6.39L39.51 6.39L39.51 6.39Q39.23 6.12 39.23 5.66L39.23 5.66L39.23 5.66Q39.23 5.19 39.61 4.84L39.61 4.84L39.61 4.84Q40.00 4.49 40.50 4.49L40.50 4.49L40.50 4.49Q41.01 4.49 41.29 4.77L41.29 4.77L41.29 4.77Q41.57 5.05 41.57 5.51L41.57 5.51L41.57 5.51Q41.57 5.96 41.17 6.31L41.17 6.31L41.17 6.31Q40.77 6.66 40.28 6.66L40.28 6.66L40.28 6.66Q39.79 6.66 39.51 6.39ZM43.79 15.57L43.79 15.57L43.79 15.57Q43.32 15.85 43.32 16.11L43.32 16.11L43.32 16.11Q43.32 16.38 43.62 16.38L43.62 16.38L43.62 16.38Q43.92 16.38 44.30 16.09L44.30 16.09L44.30 16.09Q44.67 15.81 44.93 15.16L44.93 15.16L44.93 15.16Q44.25 15.29 43.79 15.57ZM47.64 7.94L47.94 7.95L47.94 7.95Q47.99 8.01 47.99 8.20L47.99 8.20L47.99 8.20Q47.99 8.39 47.96 8.60L47.96 8.60L47.96 8.60Q47.94 8.82 47.87 9.58L47.87 9.58L47.87 9.58Q47.80 10.33 47.73 10.89L47.73 10.89L47.73 10.89Q47.01 17.19 43.89 17.19L43.89 17.19L43.89 17.19Q43.39 17.19 42.97 16.93L42.97 16.93L42.97 16.93Q42.56 16.66 42.56 16.24L42.56 16.24L42.56 16.24Q42.56 15.68 43.25 15.22L43.25 15.22L43.25 15.22Q43.93 14.76 45.09 14.50L45.09 14.50L45.09 14.50Q45.09 14.49 45.18 14.11L45.18 14.11L45.18 14.11Q45.26 13.73 45.29 13.50L45.29 13.50L45.29 13.50Q44.45 14.11 43.72 14.11L43.72 14.11L43.72 14.11Q42.98 14.11 42.51 13.54L42.51 13.54L42.51 13.54Q42.04 12.96 42.04 11.70L42.04 11.70L42.04 11.70Q42.04 10.05 42.78 8.95L42.78 8.95L42.78 8.95Q43.53 7.85 44.74 7.85L44.74 7.85L44.74 7.85Q45.43 7.85 46.10 8.19L46.10 8.19L46.10 8.19Q46.82 7.94 47.64 7.94L47.64 7.94ZM45.37 8.68L45.37 8.68L45.37 8.68Q44.77 8.68 44.42 9.65L44.42 9.65L44.42 9.65Q44.07 10.63 44.07 11.81L44.07 11.81L44.07 11.81Q44.07 12.99 44.60 12.99L44.60 12.99L44.60 12.99Q44.95 12.99 45.43 12.73L45.43 12.73L45.43 12.73Q45.82 10.37 45.99 8.85L45.99 8.85L45.99 8.85Q45.60 8.68 45.37 8.68ZM51.39 8.72L51.39 8.72L51.39 8.72Q51.39 9.31 51.02 10.75L51.02 10.75L51.02 10.75Q50.64 12.18 50.64 12.62L50.64 12.62L50.64 12.62Q50.64 13.06 50.76 13.06L50.76 13.06L50.76 13.06Q50.85 13.06 51.41 12.80L51.41 12.80L51.58 12.71L51.81 13.20L51.81 13.20Q51.69 13.31 51.48 13.48L51.48 13.48L51.48 13.48Q51.27 13.65 50.69 13.94L50.69 13.94L50.69 13.94Q50.12 14.22 49.63 14.22L49.63 14.22L49.63 14.22Q49.14 14.22 48.86 13.92L48.86 13.92L48.86 13.92Q48.58 13.62 48.58 13.11L48.58 13.11L48.58 13.11Q48.58 12.60 48.93 11.29L48.93 11.29L48.93 11.29Q49.28 9.98 49.28 9.59L49.28 9.59L49.28 9.59Q49.28 9.00 48.92 8.48L48.92 8.48L48.79 8.32L48.80 8.13L48.80 8.13Q49.55 7.92 51.21 7.92L51.21 7.92L51.21 7.92Q51.39 8.13 51.39 8.72ZM49.80 6.39L49.80 6.39L49.80 6.39Q49.52 6.12 49.52 5.66L49.52 5.66L49.52 5.66Q49.52 5.19 49.90 4.84L49.90 4.84L49.90 4.84Q50.29 4.49 50.79 4.49L50.79 4.49L50.79 4.49Q51.30 4.49 51.58 4.77L51.58 4.77L51.58 4.77Q51.86 5.05 51.86 5.51L51.86 5.51L51.86 5.51Q51.86 5.96 51.46 6.31L51.46 6.31L51.46 6.31Q51.06 6.66 50.57 6.66L50.57 6.66L50.57 6.66Q50.08 6.66 49.80 6.39ZM53.39 14.22L53.39 14.22L53.39 14.22Q52.91 14.22 52.59 13.90L52.59 13.90L52.59 13.90Q52.28 13.58 52.28 13.00L52.28 13.00L52.28 13.00Q52.28 12.42 52.97 9.29L52.97 9.29L52.97 9.29Q53.66 6.16 53.66 4.77L53.66 4.77L53.58 4.16L53.58 4.16Q54.67 3.78 55.62 3.78L55.62 3.78L55.62 3.78Q55.76 3.98 55.76 4.47L55.76 4.47L55.76 4.47Q55.76 5.59 55.05 8.80L55.05 8.80L55.05 8.80Q54.35 12.01 54.35 12.54L54.35 12.54L54.35 12.54Q54.35 13.06 54.47 13.06L54.47 13.06L55.45 12.71L55.71 13.20L55.71 13.20Q55.23 13.58 54.55 13.90L54.55 13.90L54.55 13.90Q53.87 14.22 53.39 14.22ZM60.20 8.26L60.20 8.26L60.20 8.26Q60.23 8.23 60.35 7.90L60.35 7.90L60.35 7.90Q61.01 7.90 62.12 8.29L62.12 8.29L62.12 8.29Q61.77 9.45 61.56 10.72L61.56 10.72L61.56 10.72Q61.35 11.98 61.35 12.52L61.35 12.52L61.35 12.52Q61.35 13.06 61.46 13.06L61.46 13.06L61.46 13.06Q61.54 13.06 62.08 12.80L62.08 12.80L62.24 12.71L62.50 13.20L62.50 13.20Q62.37 13.31 62.17 13.48L62.17 13.48L62.17 13.48Q61.96 13.65 61.40 13.94L61.40 13.94L61.40 13.94Q60.84 14.22 60.40 14.22L60.40 14.22L60.40 14.22Q59.53 14.22 59.39 13.44L59.39 13.44L59.39 13.44Q58.49 14.22 57.77 14.22L57.77 14.22L57.77 14.22Q57.05 14.22 56.55 13.66L56.55 13.66L56.55 13.66Q56.06 13.10 56.06 11.90L56.06 11.90L56.06 11.90Q56.06 10.02 56.83 8.94L56.83 8.94L56.83 8.94Q57.60 7.85 58.69 7.85L58.69 7.85L58.69 7.85Q59.47 7.85 60.20 8.26ZM58.60 13.03L58.60 13.03L58.60 13.03Q58.94 13.03 59.36 12.77L59.36 12.77L59.36 12.77Q59.46 10.79 60.02 8.86L60.02 8.86L60.02 8.86Q59.60 8.68 59.30 8.68L59.30 8.68L59.30 8.68Q58.80 8.68 58.44 9.67L58.44 9.67L58.44 9.67Q58.09 10.65 58.09 11.84L58.09 11.84L58.09 11.84Q58.09 13.03 58.60 13.03ZM63.13 14.10L63.13 14.10L62.86 14.10L62.86 14.10Q62.86 13.44 63.26 11.58L63.26 11.58L63.26 11.58Q63.66 9.72 63.66 9.46L63.66 9.46L63.66 9.46Q63.66 9.00 63.27 8.48L63.27 8.48L63.14 8.32L63.15 8.13L63.15 8.13Q63.91 7.92 65.58 7.92L65.58 7.92L65.58 7.92Q65.76 8.16 65.77 8.79L65.77 8.79L65.77 8.79Q66.99 7.85 67.83 7.85L67.83 7.85L67.83 7.85Q68.33 7.85 68.64 8.20L68.64 8.20L68.64 8.20Q68.94 8.55 68.94 9.08L68.94 9.08L68.94 9.08Q68.94 9.60 68.61 10.89L68.61 10.89L68.61 10.89Q68.29 12.18 68.29 12.62L68.29 12.62L68.29 12.62Q68.29 13.06 68.40 13.06L68.40 13.06L68.40 13.06Q68.49 13.06 68.99 12.80L68.99 12.80L69.16 12.71L69.41 13.20L69.41 13.20Q69.29 13.31 69.08 13.48L69.08 13.48L69.08 13.48Q68.87 13.65 68.30 13.94L68.30 13.94L68.30 13.94Q67.73 14.22 67.28 14.22L67.28 14.22L67.28 14.22Q66.26 14.22 66.26 13.06L66.26 13.06L66.26 13.06Q66.26 12.57 66.58 11.26L66.58 11.26L66.58 11.26Q66.89 9.94 66.89 9.56L66.89 9.56L66.89 9.56Q66.89 9.18 66.65 9.18L66.65 9.18L66.65 9.18Q66.25 9.18 65.66 9.53L65.66 9.53L65.66 9.53Q65.62 9.77 65.38 10.79L65.38 10.79L65.38 10.79Q64.89 12.99 64.89 13.90L64.89 13.90L64.89 13.90Q64.40 14.10 63.13 14.10ZM72.88 8.02L74.24 8.02L74.24 8.02Q74.21 8.37 74.00 8.83L74.00 8.83L74.00 8.83Q73.47 8.78 73.00 8.78L73.00 8.78L72.74 8.78L72.74 8.78Q72.10 11.90 72.10 12.67L72.10 12.67L72.10 12.67Q72.10 13.08 72.27 13.08L72.27 13.08L72.27 13.08Q72.45 13.08 73.21 12.73L73.21 12.73L73.46 13.19L73.46 13.19Q72.21 14.22 71.15 14.22L71.15 14.22L71.15 14.22Q70.66 14.22 70.34 13.92L70.34 13.92L70.34 13.92Q70.03 13.61 70.03 13.10L70.03 13.10L70.03 13.10Q70.03 12.59 70.15 11.94L70.15 11.94L70.15 11.94Q70.27 11.30 70.48 10.37L70.48 10.37L70.48 10.37Q70.69 9.44 70.78 8.86L70.78 8.86L70.78 8.86Q70.27 8.90 70.01 8.95L70.01 8.95L70.01 8.95Q69.99 8.78 69.99 8.49L69.99 8.49L69.99 8.49Q69.99 8.20 70.03 8.02L70.03 8.02L70.91 8.02L70.91 8.02Q71.02 7.27 71.02 6.59L71.02 6.59L71.01 6.16L71.01 6.12L71.01 6.12Q72.10 5.74 73.07 5.74L73.07 5.74L73.07 5.74Q73.12 6.02 73.12 6.44L73.12 6.44L73.12 6.44Q73.12 6.86 72.88 8.02L72.88 8.02ZM73.93 11.63L73.93 11.63L73.93 11.63Q73.93 9.88 74.99 8.87L74.99 8.87L74.99 8.87Q76.05 7.85 77.39 7.85L77.39 7.85L77.39 7.85Q78.22 7.85 78.75 8.26L78.75 8.26L78.75 8.26Q79.28 8.67 79.28 9.35L79.28 9.35L79.28 9.35Q79.28 10.02 78.94 10.49L78.94 10.49L78.94 10.49Q78.60 10.95 78.11 11.20L78.11 11.20L78.11 11.20Q77.11 11.69 76.29 11.82L76.29 11.82L75.95 11.86L75.95 11.86Q76.05 13.17 77.03 13.17L77.03 13.17L77.03 13.17Q77.36 13.17 77.74 13.01L77.74 13.01L77.74 13.01Q78.12 12.84 78.33 12.67L78.33 12.67L78.54 12.50L78.88 12.95L78.88 12.95Q78.76 13.10 78.43 13.36L78.43 13.36L78.43 13.36Q78.09 13.61 77.80 13.78L77.80 13.78L77.80 13.78Q76.99 14.22 76.02 14.22L76.02 14.22L76.02 14.22Q75.05 14.22 74.49 13.54L74.49 13.54L74.49 13.54Q73.93 12.85 73.93 11.63ZM75.94 11.17L75.94 11.17Q76.65 11.05 77.07 10.57L77.07 10.57L77.07 10.57Q77.49 10.09 77.49 9.34L77.49 9.34L77.49 9.34Q77.49 8.58 77.04 8.58L77.04 8.58L77.04 8.58Q76.51 8.58 76.22 9.49L76.22 9.49L76.22 9.49Q75.94 10.39 75.94 11.17L75.94 11.17Z"></path></g><defs data-v-423bf9ae=""><linearGradient data-v-423bf9ae="" gradientTransform="rotate(25)" id="cccb200f-7244-4aa3-9538-73dbd787dca6" x1="0%" y1="0%" x2="100%" y2="0%"><stop data-v-423bf9ae="" offset="0%" style="stop-color: rgb(169, 37, 128); stop-opacity: 1;"></stop><stop data-v-423bf9ae="" offset="100%" style="stop-color: rgb(247, 188, 0); stop-opacity: 1;"></stop></linearGradient></defs><g data-v-423bf9ae="" id="68e02913-95cf-4c74-b546-72d7e8292d30" transform="matrix(1.0888888888888888,0,0,1.0888888888888888,-22.883204481336804,-0.44444444444444287)" stroke="none" fill="url(#cccb200f-7244-4aa3-9538-73dbd787dca6)"><path clip-rule="evenodd" d="M30.545 28.822c-1.165 7.217.33 14.85 6.5 19.041C30.758 19.81 45.756 8.664 59.646 1c-16.18 23.046 16.896 23.644 18.777 50.13C80.028 73.71 64.507 91.317 46.639 99c.206-22.825-22.55-25.933-24.838-44.603-.896-7.303 3.261-20.631 8.744-25.575z"></path></g><!----></svg>