<svg data-v-423bf9ae="" xmlns="http://www.w3.org/2000/svg" viewBox="0 0 430 107" class="iconLeftSlogan"><!----><defs data-v-423bf9ae=""><linearGradient data-v-423bf9ae="" gradientTransform="rotate(25)" id="8f402b95-7b16-4114-a3ee-c06bc2df46b6" x1="0%" y1="0%" x2="100%" y2="0%"><stop data-v-423bf9ae="" offset="0%" style="stop-color: rgb(169, 37, 128); stop-opacity: 1;"></stop><stop data-v-423bf9ae="" offset="100%" style="stop-color: rgb(247, 188, 0); stop-opacity: 1;"></stop></linearGradient></defs><!----><g data-v-423bf9ae="" id="f852c4d8-0190-46e8-be05-24b8d33e06da" fill="#ffffff" transform="matrix(3.926701394224354,0,0,3.926701394224354,82.54061079882416,-8.44240884889895)"><path d="M-0.05 13.04L-0.05 13.04L-0.05 13.04Q1.13 12.17 2.33 8.57L2.33 8.57L2.33 8.57Q3.03 6.47 3.30 4.79L3.30 4.79L3.30 4.79Q3.38 4.31 3.38 4.06L3.38 4.06L3.38 4.06Q3.10 4.07 2.86 4.21L2.86 4.21L2.34 4.50L2.34 4.50Q2.13 4.62 1.78 4.32L1.78 4.32L1.78 4.32Q1.43 4.02 1.46 3.81L1.46 3.81L1.46 3.81Q1.49 3.60 1.69 3.47L1.69 3.47L1.69 3.47Q1.89 3.34 2.16 3.24L2.16 3.24L2.16 3.24Q2.72 3.04 3.10 3.04L3.10 3.04L3.10 3.04Q3.48 3.04 3.77 3.10L3.77 3.10L3.77 3.10Q4.06 3.16 4.30 3.29L4.30 3.29L4.30 3.29Q4.85 3.61 4.86 4.20L4.86 4.20L4.86 4.20Q4.89 5.22 4.17 7.66L4.17 7.66L4.17 7.66Q3.04 11.52 1.50 13.08L1.50 13.08L1.50 13.08Q1.09 13.51 0.64 13.67L0.64 13.67L0.64 13.67Q0.51 13.72 0.39 13.72L0.39 13.72L0.39 13.72Q0.26 13.72 0.16 13.68L0.16 13.68L0.16 13.68Q0.05 13.63-0.01 13.56L-0.01 13.56L-0.01 13.56Q-0.16 13.43-0.16 13.28L-0.16 13.28L-0.16 13.28Q-0.16 13.12-0.05 13.04ZM9.08 12.18L9.08 12.18L9.08 12.18Q8.05 13.74 6.78 13.74L6.78 13.74L6.78 13.74Q5.64 13.74 5.24 12.52L5.24 12.52L5.24 12.52Q5.11 12.11 5.11 11.50L5.11 11.50L5.11 11.50Q5.11 10.89 5.28 10.28L5.28 10.28L5.28 10.28Q5.46 9.67 5.76 9.12L5.76 9.12L5.76 9.12Q6.06 8.57 6.46 8.11L6.46 8.11L6.46 8.11Q6.87 7.65 7.33 7.31L7.33 7.31L7.33 7.31Q8.31 6.60 9.26 6.60L9.26 6.60L9.26 6.60Q10.22 6.60 10.63 7.49L10.63 7.49L10.63 7.49Q10.71 7.40 10.78 7.31L10.78 7.31L10.78 7.31Q10.85 7.22 10.93 7.14L10.93 7.14L10.93 7.14Q11.11 6.96 11.24 6.96L11.24 6.96L11.24 6.96Q11.38 6.96 11.52 7.01L11.52 7.01L11.52 7.01Q11.67 7.05 11.81 7.14L11.81 7.14L11.81 7.14Q12.14 7.33 12.06 7.51L12.06 7.51L12.06 7.51Q11.68 8.32 11.43 9.11L11.43 9.11L10.42 12.33L10.42 12.33Q9.22 16.00 7.38 17.08L7.38 17.08L7.38 17.08Q6.90 17.36 6.54 17.41L6.54 17.41L6.54 17.41Q6.19 17.45 6.03 17.41L6.03 17.41L6.03 17.41Q5.87 17.37 5.75 17.29L5.75 17.29L5.75 17.29Q5.48 17.12 5.48 16.99L5.48 16.99L5.48 16.99Q5.48 16.75 5.80 16.69L5.80 16.69L5.80 16.69Q6.12 16.64 6.47 16.44L6.47 16.44L6.47 16.44Q6.82 16.24 7.13 15.95L7.13 15.95L7.13 15.95Q8.42 14.75 9.08 12.18ZM7.04 9.81L7.04 9.81L7.04 9.81Q6.86 10.30 6.75 10.82L6.75 10.82L6.75 10.82Q6.65 11.33 6.65 11.66L6.65 11.66L6.65 11.66Q6.65 11.99 6.67 12.16L6.67 12.16L6.67 12.16Q6.69 12.33 6.75 12.46L6.75 12.46L6.75 12.46Q6.89 12.75 7.16 12.75L7.16 12.75L7.16 12.75Q7.42 12.75 7.68 12.56L7.68 12.56L7.68 12.56Q7.94 12.37 8.23 12.04L8.23 12.04L8.23 12.04Q8.52 11.72 8.80 11.27L8.80 11.27L8.80 11.27Q9.09 10.83 9.35 10.32L9.35 10.32L9.35 10.32Q9.93 9.18 10.16 8.15L10.16 8.15L10.16 8.15Q10.12 7.96 9.93 7.76L9.93 7.76L9.93 7.76Q9.54 7.38 9.22 7.38L9.22 7.38L9.22 7.38Q8.91 7.38 8.59 7.58L8.59 7.58L8.59 7.58Q8.28 7.77 7.99 8.10L7.99 8.10L7.99 8.10Q7.71 8.44 7.46 8.88L7.46 8.88L7.46 8.88Q7.22 9.32 7.04 9.81ZM17.38 7.89L17.38 7.89L17.38 7.89Q17.17 7.89 16.78 8.30L16.78 8.30L16.78 8.30Q16.39 8.70 16.11 9.04L16.11 9.04L15.52 9.73L14.40 11.16L14.40 11.16Q14.01 11.92 13.78 12.41L13.78 12.41L13.41 13.21L13.41 13.21Q13.27 13.50 13.16 13.62L13.16 13.62L13.16 13.62Q13.06 13.74 12.88 13.74L12.88 13.74L12.88 13.74Q12.69 13.74 12.53 13.68L12.53 13.68L12.53 13.68Q12.36 13.61 12.24 13.51L12.24 13.51L12.24 13.51Q11.98 13.29 11.98 13.03L11.98 13.03L11.98 13.03Q11.98 12.93 12.13 12.63L12.13 12.63L12.39 12.07L12.39 12.07Q12.51 11.83 12.67 11.44L12.67 11.44L13.06 10.51L13.06 10.51Q13.86 8.49 13.86 7.90L13.86 7.90L13.86 7.90Q13.86 7.59 13.66 7.44L13.66 7.44L13.52 7.34L13.52 7.34Q13.45 7.29 13.45 7.17L13.45 7.17L13.45 7.17Q13.45 7.05 13.55 6.95L13.55 6.95L13.55 6.95Q13.64 6.84 13.79 6.75L13.79 6.75L13.79 6.75Q14.10 6.60 14.41 6.60L14.41 6.60L14.41 6.60Q14.72 6.60 14.89 6.67L14.89 6.67L14.89 6.67Q15.06 6.73 15.18 6.85L15.18 6.85L15.18 6.85Q15.43 7.09 15.43 7.35L15.43 7.35L15.43 7.35Q15.43 7.61 15.36 7.87L15.36 7.87L15.36 7.87Q15.30 8.13 15.20 8.40L15.20 8.40L15.20 8.40Q15.10 8.67 14.99 8.93L14.99 8.93L14.99 8.93Q14.88 9.19 14.79 9.39L14.79 9.39L14.66 9.68L14.66 9.68Q14.60 9.79 14.63 9.75L14.63 9.75L14.63 9.75Q15.39 8.70 15.63 8.39L15.63 8.39L16.11 7.82L16.11 7.82Q16.63 7.21 16.93 7.01L16.93 7.01L16.93 7.01Q17.54 6.60 17.89 6.60L17.89 6.60L17.89 6.60Q18.24 6.60 18.48 6.69L18.48 6.69L18.48 6.69Q18.72 6.77 18.89 6.94L18.89 6.94L18.89 6.94Q19.27 7.29 19.27 7.83L19.27 7.83L19.27 7.83Q19.27 8.37 19.02 8.96L19.02 8.96L19.02 8.96Q18.78 9.54 18.60 9.91L18.60 9.91L18.60 9.91Q18.42 10.27 18.25 10.65L18.25 10.65L18.25 10.65Q17.74 11.79 17.74 12.31L17.74 12.31L17.74 12.31Q17.74 12.54 18.11 12.54L18.11 12.54L18.11 12.54Q18.40 12.54 18.63 12.42L18.63 12.42L18.63 12.42Q18.87 12.30 18.94 12.30L18.94 12.30L18.94 12.30Q19.08 12.30 19.08 12.44L19.08 12.44L19.08 12.44Q19.08 13.05 18.46 13.46L18.46 13.46L18.46 13.46Q18.04 13.74 17.69 13.74L17.69 13.74L17.69 13.74Q17.34 13.74 17.11 13.67L17.11 13.67L17.11 13.67Q16.88 13.59 16.71 13.43L16.71 13.43L16.71 13.43Q16.30 13.06 16.30 12.41L16.30 12.41L16.30 12.41Q16.30 11.62 16.80 10.43L16.80 10.43L16.80 10.43Q17.17 9.62 17.32 9.32L17.32 9.32L17.55 8.83L17.55 8.83Q17.76 8.39 17.76 8.14L17.76 8.14L17.76 8.14Q17.76 7.89 17.38 7.89ZM24.00 4.99L24.00 4.99L24.00 4.99Q23.85 5.15 23.66 5.25L23.66 5.25L23.66 5.25Q23.47 5.35 23.26 5.38L23.26 5.38L23.26 5.38Q23.04 5.40 22.86 5.31L22.86 5.31L22.86 5.31Q22.67 5.22 22.53 5.06L22.53 5.06L22.53 5.06Q22.24 4.72 22.24 4.37L22.24 4.37L22.24 4.37Q22.24 4.02 22.35 3.85L22.35 3.85L22.35 3.85Q22.46 3.67 22.63 3.56L22.63 3.56L22.63 3.56Q22.96 3.35 23.25 3.35L23.25 3.35L23.25 3.35Q23.54 3.35 23.70 3.39L23.70 3.39L23.70 3.39Q23.86 3.43 24.00 3.53L24.00 3.53L24.00 3.53Q24.34 3.75 24.34 4.08L24.34 4.08L24.34 4.08Q24.34 4.40 24.24 4.62L24.24 4.62L24.24 4.62Q24.15 4.83 24.00 4.99ZM22.60 12.39L22.60 12.39L22.60 12.39Q22.78 12.39 22.78 12.63L22.78 12.63L22.78 12.63Q22.78 12.93 22.50 13.26L22.50 13.26L22.50 13.26Q22.09 13.74 21.40 13.74L21.40 13.74L21.40 13.74Q20.60 13.74 20.31 13.10L20.31 13.10L20.31 13.10Q20.20 12.87 20.20 12.55L20.20 12.55L20.20 12.55Q20.20 12.23 20.31 11.84L20.31 11.84L20.31 11.84Q20.43 11.44 20.59 11.01L20.59 11.01L20.59 11.01Q20.76 10.58 20.96 10.13L20.96 10.13L21.32 9.27L21.32 9.27Q21.72 8.31 21.72 8.00L21.72 8.00L21.72 8.00Q21.72 7.69 21.65 7.59L21.65 7.59L21.65 7.59Q21.59 7.49 21.51 7.44L21.51 7.44L21.38 7.34L21.38 7.34Q21.31 7.29 21.31 7.17L21.31 7.17L21.31 7.17Q21.31 7.05 21.40 6.95L21.40 6.95L21.40 6.95Q21.49 6.84 21.64 6.75L21.64 6.75L21.64 6.75Q21.95 6.60 22.36 6.60L22.36 6.60L22.36 6.60Q23.37 6.60 23.37 7.12L23.37 7.12L23.37 7.12Q23.37 7.74 23.04 8.53L23.04 8.53L23.04 8.53Q22.72 9.32 22.50 9.80L22.50 9.80L22.09 10.75L22.09 10.75Q21.64 11.79 21.64 12.24L21.64 12.24L21.64 12.24Q21.64 12.54 21.94 12.54L21.94 12.54L21.94 12.54Q22.23 12.54 22.38 12.47L22.38 12.47L22.38 12.47Q22.53 12.39 22.60 12.39ZM23.99 12.47L23.99 12.47L23.99 12.47Q23.99 12.26 24.08 12.08L24.08 12.08L24.08 12.08Q24.17 11.89 24.31 11.77L24.31 11.77L24.31 11.77Q24.60 11.50 24.91 11.50L24.91 11.50L24.91 11.50Q25.18 11.50 25.18 11.79L25.18 11.79L25.18 11.79Q25.18 12.50 25.66 12.78L25.66 12.78L25.66 12.78Q25.83 12.88 26.01 12.88L26.01 12.88L26.01 12.88Q26.20 12.88 26.33 12.84L26.33 12.84L26.33 12.84Q26.46 12.80 26.56 12.71L26.56 12.71L26.56 12.71Q26.81 12.51 26.81 12.24L26.81 12.24L26.81 12.24Q26.81 11.96 26.69 11.73L26.69 11.73L26.69 11.73Q26.56 11.50 26.38 11.25L26.38 11.25L25.99 10.71L25.99 10.71Q25.17 9.61 25.17 8.69L25.17 8.69L25.17 8.69Q25.17 7.92 25.82 7.30L25.82 7.30L25.82 7.30Q26.56 6.60 27.71 6.60L27.71 6.60L27.71 6.60Q28.72 6.60 29.29 7.10L29.29 7.10L29.29 7.10Q29.76 7.50 29.76 8.02L29.76 8.02L29.76 8.02Q29.76 8.56 29.35 8.88L29.35 8.88L29.35 8.88Q28.98 9.17 28.61 9.09L28.61 9.09L28.61 9.09Q28.44 9.06 28.36 8.92L28.36 8.92L28.36 8.92Q28.27 8.79 28.32 8.62L28.32 8.62L28.32 8.62Q28.38 8.45 28.38 8.26L28.38 8.26L28.38 8.26Q28.38 8.08 28.31 7.92L28.31 7.92L28.31 7.92Q28.24 7.77 28.12 7.66L28.12 7.66L28.12 7.66Q27.88 7.43 27.62 7.43L27.62 7.43L27.62 7.43Q27.36 7.43 27.19 7.49L27.19 7.49L27.19 7.49Q27.02 7.55 26.89 7.66L26.89 7.66L26.89 7.66Q26.62 7.90 26.62 8.26L26.62 8.26L26.62 8.26Q26.62 8.62 26.74 8.88L26.74 8.88L26.74 8.88Q26.87 9.14 27.05 9.40L27.05 9.40L27.05 9.40Q27.23 9.66 27.44 9.93L27.44 9.93L27.44 9.93Q27.65 10.19 27.83 10.49L27.83 10.49L27.83 10.49Q28.26 11.18 28.26 11.70L28.26 11.70L28.26 11.70Q28.26 12.22 28.04 12.57L28.04 12.57L28.04 12.57Q27.82 12.93 27.47 13.18L27.47 13.18L27.47 13.18Q26.73 13.73 25.81 13.73L25.81 13.73L25.81 13.73Q24.92 13.73 24.41 13.31L24.41 13.31L24.41 13.31Q23.99 12.95 23.99 12.47ZM35.16 13.02L35.16 13.02L35.16 13.02Q35.01 12.73 34.93 12.40L34.93 12.40L34.93 12.40Q34.86 12.07 34.86 11.70L34.86 11.70L34.86 11.70Q34.86 11.33 34.98 10.73L34.98 10.73L34.98 10.73Q35.11 10.13 35.33 9.46L35.33 9.46L35.33 9.46Q35.55 8.80 35.84 8.10L35.84 8.10L35.84 8.10Q36.13 7.40 36.46 6.74L36.46 6.74L36.46 6.74Q37.13 5.36 37.79 4.35L37.79 4.35L37.71 4.35L37.71 4.35Q36.90 4.35 36.20 4.72L36.20 4.72L36.20 4.72Q36.03 4.85 35.88 4.85L35.88 4.85L35.88 4.85Q35.55 4.85 35.24 4.53L35.24 4.53L35.24 4.53Q34.53 3.77 36.09 3.28L36.09 3.28L36.09 3.28Q36.82 3.04 37.27 3.04L37.27 3.04L37.27 3.04Q37.71 3.04 37.99 3.18L37.99 3.18L37.99 3.18Q38.26 3.32 38.45 3.51L38.45 3.51L38.45 3.51Q38.75 3.81 38.88 4.11L38.88 4.11L38.88 4.11Q39.01 4.40 39.01 4.62L39.01 4.62L39.01 4.62Q39.01 4.85 38.87 5.22L38.87 5.22L38.87 5.22Q38.74 5.59 38.53 6.02L38.53 6.02L38.07 6.92L38.07 6.92Q37.82 7.39 37.58 7.91L37.58 7.91L37.58 7.91Q37.33 8.43 37.08 8.95L37.08 8.95L37.08 8.95Q36.84 9.47 36.65 9.96L36.65 9.96L36.65 9.96Q36.23 11.06 36.23 11.83L36.23 11.83L36.23 11.83Q36.23 12.29 36.32 12.59L36.32 12.59L36.32 12.59Q36.62 12.11 37.06 11.59L37.06 11.59L38.01 10.52L38.01 10.52Q39.68 8.73 40.17 8.14L40.17 8.14L40.17 8.14Q41.34 6.77 41.97 5.55L41.97 5.55L41.97 5.55Q42.22 5.07 42.22 4.67L42.22 4.67L42.22 4.67Q42.22 3.94 41.82 3.57L41.82 3.57L41.82 3.57Q41.67 3.42 41.78 3.22L41.78 3.22L41.78 3.22Q41.88 3.01 41.99 2.91L41.99 2.91L41.99 2.91Q42.26 2.67 42.59 2.67L42.59 2.67L42.59 2.67Q42.93 2.67 43.16 2.81L43.16 2.81L43.16 2.81Q43.39 2.95 43.54 3.16L43.54 3.16L43.54 3.16Q43.83 3.58 43.83 4.19L43.83 4.19L43.83 4.19Q43.83 4.81 43.57 5.50L43.57 5.50L43.57 5.50Q43.31 6.19 42.88 6.85L42.88 6.85L42.88 6.85Q42.45 7.51 41.91 8.13L41.91 8.13L41.91 8.13Q41.36 8.75 40.80 9.31L40.80 9.31L38.73 11.26L38.73 11.26Q37.80 12.20 37.48 12.55L37.48 12.55L37.48 12.55Q36.88 13.22 36.71 13.43L36.71 13.43L36.71 13.43Q36.54 13.64 36.40 13.69L36.40 13.69L36.40 13.69Q36.26 13.73 36.03 13.73L36.03 13.73L36.03 13.73Q35.80 13.73 35.56 13.52L35.56 13.52L35.56 13.52Q35.31 13.32 35.16 13.02ZM46.46 4.99L46.46 4.99L46.46 4.99Q46.31 5.15 46.12 5.25L46.12 5.25L46.12 5.25Q45.92 5.35 45.71 5.38L45.71 5.38L45.71 5.38Q45.50 5.40 45.31 5.31L45.31 5.31L45.31 5.31Q45.12 5.22 44.99 5.06L44.99 5.06L44.99 5.06Q44.69 4.72 44.69 4.37L44.69 4.37L44.69 4.37Q44.69 4.02 44.81 3.85L44.81 3.85L44.81 3.85Q44.92 3.67 45.09 3.56L45.09 3.56L45.09 3.56Q45.42 3.35 45.71 3.35L45.71 3.35L45.71 3.35Q46.00 3.35 46.16 3.39L46.16 3.39L46.16 3.39Q46.32 3.43 46.46 3.53L46.46 3.53L46.46 3.53Q46.79 3.75 46.79 4.08L46.79 4.08L46.79 4.08Q46.79 4.40 46.70 4.62L46.70 4.62L46.70 4.62Q46.61 4.83 46.46 4.99ZM45.06 12.39L45.06 12.39L45.06 12.39Q45.23 12.39 45.23 12.63L45.23 12.63L45.23 12.63Q45.23 12.93 44.95 13.26L44.95 13.26L44.95 13.26Q44.54 13.74 43.85 13.74L43.85 13.74L43.85 13.74Q43.06 13.74 42.77 13.10L42.77 13.10L42.77 13.10Q42.66 12.87 42.66 12.55L42.66 12.55L42.66 12.55Q42.66 12.23 42.77 11.84L42.77 11.84L42.77 11.84Q42.88 11.44 43.05 11.01L43.05 11.01L43.05 11.01Q43.22 10.58 43.42 10.13L43.42 10.13L43.78 9.27L43.78 9.27Q44.17 8.31 44.17 8.00L44.17 8.00L44.17 8.00Q44.17 7.69 44.11 7.59L44.11 7.59L44.11 7.59Q44.04 7.49 43.97 7.44L43.97 7.44L43.83 7.34L43.83 7.34Q43.76 7.29 43.76 7.17L43.76 7.17L43.76 7.17Q43.76 7.05 43.86 6.95L43.86 6.95L43.86 6.95Q43.95 6.84 44.10 6.75L44.10 6.75L44.10 6.75Q44.41 6.60 44.82 6.60L44.82 6.60L44.82 6.60Q45.82 6.60 45.82 7.12L45.82 7.12L45.82 7.12Q45.82 7.74 45.50 8.53L45.50 8.53L45.50 8.53Q45.18 9.32 44.95 9.80L44.95 9.80L44.54 10.75L44.54 10.75Q44.09 11.79 44.09 12.24L44.09 12.24L44.09 12.24Q44.09 12.54 44.39 12.54L44.39 12.54L44.39 12.54Q44.69 12.54 44.84 12.47L44.84 12.47L44.84 12.47Q44.99 12.39 45.06 12.39ZM50.78 12.18L50.78 12.18L50.78 12.18Q49.74 13.74 48.47 13.74L48.47 13.74L48.47 13.74Q47.33 13.74 46.94 12.52L46.94 12.52L46.94 12.52Q46.80 12.11 46.80 11.50L46.80 11.50L46.80 11.50Q46.80 10.89 46.97 10.28L46.97 10.28L46.97 10.28Q47.15 9.67 47.45 9.12L47.45 9.12L47.45 9.12Q47.75 8.57 48.16 8.11L48.16 8.11L48.16 8.11Q48.56 7.65 49.03 7.31L49.03 7.31L49.03 7.31Q50.00 6.60 50.96 6.60L50.96 6.60L50.96 6.60Q51.91 6.60 52.32 7.49L52.32 7.49L52.32 7.49Q52.40 7.40 52.47 7.31L52.47 7.31L52.47 7.31Q52.54 7.22 52.62 7.14L52.62 7.14L52.62 7.14Q52.80 6.96 52.93 6.96L52.93 6.96L52.93 6.96Q53.07 6.96 53.21 7.01L53.21 7.01L53.21 7.01Q53.36 7.05 53.50 7.14L53.50 7.14L53.50 7.14Q53.83 7.33 53.75 7.51L53.75 7.51L53.75 7.51Q53.38 8.32 53.12 9.11L53.12 9.11L52.11 12.33L52.11 12.33Q50.91 16.00 49.08 17.08L49.08 17.08L49.08 17.08Q48.59 17.36 48.23 17.41L48.23 17.41L48.23 17.41Q47.88 17.45 47.72 17.41L47.72 17.41L47.72 17.41Q47.56 17.37 47.44 17.29L47.44 17.29L47.44 17.29Q47.17 17.12 47.17 16.99L47.17 16.99L47.17 16.99Q47.17 16.75 47.49 16.69L47.49 16.69L47.49 16.69Q47.81 16.64 48.16 16.44L48.16 16.44L48.16 16.44Q48.51 16.24 48.82 15.95L48.82 15.95L48.82 15.95Q50.11 14.75 50.78 12.18ZM48.73 9.81L48.73 9.81L48.73 9.81Q48.55 10.30 48.45 10.82L48.45 10.82L48.45 10.82Q48.34 11.33 48.34 11.66L48.34 11.66L48.34 11.66Q48.34 11.99 48.36 12.16L48.36 12.16L48.36 12.16Q48.38 12.33 48.45 12.46L48.45 12.46L48.45 12.46Q48.58 12.75 48.85 12.75L48.85 12.75L48.85 12.75Q49.12 12.75 49.38 12.56L49.38 12.56L49.38 12.56Q49.64 12.37 49.92 12.04L49.92 12.04L49.92 12.04Q50.21 11.72 50.50 11.27L50.50 11.27L50.50 11.27Q50.78 10.83 51.04 10.32L51.04 10.32L51.04 10.32Q51.62 9.18 51.85 8.15L51.85 8.15L51.85 8.15Q51.82 7.96 51.62 7.76L51.62 7.76L51.62 7.76Q51.23 7.38 50.91 7.38L50.91 7.38L50.91 7.38Q50.60 7.38 50.29 7.58L50.29 7.58L50.29 7.58Q49.97 7.77 49.69 8.10L49.69 8.10L49.69 8.10Q49.40 8.44 49.16 8.88L49.16 8.88L49.16 8.88Q48.91 9.32 48.73 9.81ZM57.84 4.99L57.84 4.99L57.84 4.99Q57.69 5.15 57.50 5.25L57.50 5.25L57.50 5.25Q57.31 5.35 57.09 5.38L57.09 5.38L57.09 5.38Q56.88 5.40 56.69 5.31L56.69 5.31L56.69 5.31Q56.51 5.22 56.37 5.06L56.37 5.06L56.37 5.06Q56.08 4.72 56.08 4.37L56.08 4.37L56.08 4.37Q56.08 4.02 56.19 3.85L56.19 3.85L56.19 3.85Q56.30 3.67 56.47 3.56L56.47 3.56L56.47 3.56Q56.80 3.35 57.09 3.35L57.09 3.35L57.09 3.35Q57.38 3.35 57.54 3.39L57.54 3.39L57.54 3.39Q57.70 3.43 57.84 3.53L57.84 3.53L57.84 3.53Q58.17 3.75 58.17 4.08L58.17 4.08L58.17 4.08Q58.17 4.40 58.08 4.62L58.08 4.62L58.08 4.62Q57.99 4.83 57.84 4.99ZM56.44 12.39L56.44 12.39L56.44 12.39Q56.62 12.39 56.62 12.63L56.62 12.63L56.62 12.63Q56.62 12.93 56.33 13.26L56.33 13.26L56.33 13.26Q55.92 13.74 55.23 13.74L55.23 13.74L55.23 13.74Q54.44 13.74 54.15 13.10L54.15 13.10L54.15 13.10Q54.04 12.87 54.04 12.55L54.04 12.55L54.04 12.55Q54.04 12.23 54.15 11.84L54.15 11.84L54.15 11.84Q54.26 11.44 54.43 11.01L54.43 11.01L54.43 11.01Q54.60 10.58 54.80 10.13L54.80 10.13L55.16 9.27L55.16 9.27Q55.56 8.31 55.56 8.00L55.56 8.00L55.56 8.00Q55.56 7.69 55.49 7.59L55.49 7.59L55.49 7.59Q55.43 7.49 55.35 7.44L55.35 7.44L55.21 7.34L55.21 7.34Q55.15 7.29 55.15 7.17L55.15 7.17L55.15 7.17Q55.15 7.05 55.24 6.95L55.24 6.95L55.24 6.95Q55.33 6.84 55.48 6.75L55.48 6.75L55.48 6.75Q55.79 6.60 56.20 6.60L56.20 6.60L56.20 6.60Q57.20 6.60 57.20 7.12L57.20 7.12L57.20 7.12Q57.20 7.74 56.88 8.53L56.88 8.53L56.88 8.53Q56.56 9.32 56.33 9.80L56.33 9.80L55.92 10.75L55.92 10.75Q55.47 11.79 55.47 12.24L55.47 12.24L55.47 12.24Q55.47 12.54 55.77 12.54L55.77 12.54L55.77 12.54Q56.07 12.54 56.22 12.47L56.22 12.47L56.22 12.47Q56.37 12.39 56.44 12.39ZM58.49 13.40L58.49 13.40L58.49 13.40Q58.32 13.22 58.21 12.94L58.21 12.94L58.21 12.94Q58.11 12.67 58.11 12.30L58.11 12.30L58.11 12.30Q58.11 11.94 58.27 11.32L58.27 11.32L58.27 11.32Q58.44 10.71 58.70 9.92L58.70 9.92L59.27 8.22L59.27 8.22Q60.50 4.66 60.69 2.72L60.69 2.72L60.69 2.72Q60.75 2.15 61.25 2.15L61.25 2.15L61.25 2.15Q61.56 2.15 61.77 2.30L61.77 2.30L61.77 2.30Q62.17 2.60 62.15 2.97L62.15 2.97L62.15 2.97Q62.14 3.34 62.02 3.87L62.02 3.87L62.02 3.87Q61.91 4.40 61.72 5.02L61.72 5.02L61.72 5.02Q61.54 5.65 61.30 6.34L61.30 6.34L60.35 9.12L60.35 9.12Q59.54 11.48 59.54 12.17L59.54 12.17L59.54 12.17Q59.54 12.54 59.84 12.54L59.84 12.54L59.84 12.54Q60.13 12.54 60.36 12.42L60.36 12.42L60.36 12.42Q60.60 12.30 60.67 12.30L60.67 12.30L60.67 12.30Q60.81 12.30 60.81 12.44L60.81 12.44L60.81 12.44Q60.81 13.05 60.19 13.46L60.19 13.46L60.19 13.46Q59.77 13.74 59.43 13.74L59.43 13.74L59.43 13.74Q59.08 13.74 58.87 13.66L58.87 13.66L58.87 13.66Q58.66 13.58 58.49 13.40ZM67.30 11.85L67.30 11.85L67.30 11.85Q67.30 12.48 67.74 12.48L67.74 12.48L67.74 12.48Q68.05 12.48 68.25 12.39L68.25 12.39L68.25 12.39Q68.46 12.29 68.52 12.29L68.52 12.29L68.52 12.29Q68.67 12.29 68.67 12.44L68.67 12.44L68.67 12.44Q68.67 13.03 68.05 13.45L68.05 13.45L68.05 13.45Q67.40 13.90 66.73 13.67L66.73 13.67L66.73 13.67Q66.28 13.51 66.07 13.00L66.07 13.00L66.07 13.00Q65.97 12.73 65.97 12.51L65.97 12.51L65.97 12.51Q65.97 12.15 66.04 11.76L66.04 11.76L66.04 11.76Q65.40 13.06 64.46 13.55L64.46 13.55L64.46 13.55Q64.08 13.74 63.66 13.74L63.66 13.74L63.66 13.74Q63.23 13.74 62.92 13.57L62.92 13.57L62.92 13.57Q62.61 13.39 62.39 13.08L62.39 13.08L62.39 13.08Q61.95 12.44 61.99 11.47L61.99 11.47L61.99 11.47Q62.03 10.25 62.71 9.08L62.71 9.08L62.71 9.08Q63.33 7.99 64.28 7.30L64.28 7.30L64.28 7.30Q65.23 6.60 66.06 6.60L66.06 6.60L66.06 6.60Q66.88 6.60 67.39 7.36L67.39 7.36L67.39 7.36Q67.86 6.60 68.22 6.60L68.22 6.60L68.22 6.60Q68.61 6.60 68.81 6.74L68.81 6.74L68.81 6.74Q69.19 7.01 69.08 7.22L69.08 7.22L69.08 7.22Q67.36 10.73 67.31 11.59L67.31 11.59L67.31 11.59Q67.30 11.72 67.30 11.85ZM63.51 11.88L63.51 11.88L63.51 11.88Q63.51 12.70 64.03 12.70L64.03 12.70L64.03 12.70Q64.44 12.70 65.02 12.02L65.02 12.02L65.02 12.02Q65.88 11.01 66.55 9.31L66.55 9.31L66.55 9.31Q66.76 8.78 66.90 8.24L66.90 8.24L66.90 8.24Q66.88 7.78 66.51 7.56L66.51 7.56L66.51 7.56Q66.39 7.49 66.15 7.49L66.15 7.49L66.15 7.49Q65.91 7.49 65.58 7.66L65.58 7.66L65.58 7.66Q65.26 7.84 64.95 8.15L64.95 8.15L64.95 8.15Q64.65 8.46 64.38 8.88L64.38 8.88L64.38 8.88Q64.12 9.30 63.92 9.79L63.92 9.79L63.92 9.79Q63.51 10.84 63.51 11.88ZM74.57 7.89L74.57 7.89L74.57 7.89Q74.36 7.89 73.97 8.30L73.97 8.30L73.97 8.30Q73.58 8.70 73.29 9.04L73.29 9.04L72.71 9.73L71.59 11.16L71.59 11.16Q71.20 11.92 70.97 12.41L70.97 12.41L70.60 13.21L70.60 13.21Q70.46 13.50 70.35 13.62L70.35 13.62L70.35 13.62Q70.25 13.74 70.06 13.74L70.06 13.74L70.06 13.74Q69.88 13.74 69.72 13.68L69.72 13.68L69.72 13.68Q69.55 13.61 69.43 13.51L69.43 13.51L69.43 13.51Q69.17 13.29 69.17 13.03L69.17 13.03L69.17 13.03Q69.17 12.93 69.32 12.63L69.32 12.63L69.58 12.07L69.58 12.07Q69.70 11.83 69.86 11.44L69.86 11.44L70.25 10.51L70.25 10.51Q71.05 8.49 71.05 7.90L71.05 7.90L71.05 7.90Q71.05 7.59 70.85 7.44L70.85 7.44L70.71 7.34L70.71 7.34Q70.64 7.29 70.64 7.17L70.64 7.17L70.64 7.17Q70.64 7.05 70.73 6.95L70.73 6.95L70.73 6.95Q70.83 6.84 70.98 6.75L70.98 6.75L70.98 6.75Q71.29 6.60 71.60 6.60L71.60 6.60L71.60 6.60Q71.91 6.60 72.08 6.67L72.08 6.67L72.08 6.67Q72.25 6.73 72.37 6.85L72.37 6.85L72.37 6.85Q72.62 7.09 72.62 7.35L72.62 7.35L72.62 7.35Q72.62 7.61 72.55 7.87L72.55 7.87L72.55 7.87Q72.49 8.13 72.39 8.40L72.39 8.40L72.39 8.40Q72.29 8.67 72.18 8.93L72.18 8.93L72.18 8.93Q72.07 9.19 71.98 9.39L71.98 9.39L71.85 9.68L71.85 9.68Q71.79 9.79 71.82 9.75L71.82 9.75L71.82 9.75Q72.58 8.70 72.82 8.39L72.82 8.39L73.29 7.82L73.29 7.82Q73.82 7.21 74.12 7.01L74.12 7.01L74.12 7.01Q74.73 6.60 75.08 6.60L75.08 6.60L75.08 6.60Q75.43 6.60 75.67 6.69L75.67 6.69L75.67 6.69Q75.91 6.77 76.08 6.94L76.08 6.94L76.08 6.94Q76.46 7.29 76.46 7.83L76.46 7.83L76.46 7.83Q76.46 8.37 76.21 8.96L76.21 8.96L76.21 8.96Q75.97 9.54 75.79 9.91L75.79 9.91L75.79 9.91Q75.61 10.27 75.44 10.65L75.44 10.65L75.44 10.65Q74.93 11.79 74.93 12.31L74.93 12.31L74.93 12.31Q74.93 12.54 75.30 12.54L75.30 12.54L75.30 12.54Q75.58 12.54 75.82 12.42L75.82 12.42L75.82 12.42Q76.06 12.30 76.13 12.30L76.13 12.30L76.13 12.30Q76.27 12.30 76.27 12.44L76.27 12.44L76.27 12.44Q76.27 13.05 75.65 13.46L75.65 13.46L75.65 13.46Q75.23 13.74 74.88 13.74L74.88 13.74L74.88 13.74Q74.53 13.74 74.30 13.67L74.30 13.67L74.30 13.67Q74.07 13.59 73.90 13.43L73.90 13.43L73.90 13.43Q73.49 13.06 73.49 12.41L73.49 12.41L73.49 12.41Q73.49 11.62 73.99 10.43L73.99 10.43L73.99 10.43Q74.35 9.62 74.50 9.32L74.50 9.32L74.74 8.83L74.74 8.83Q74.95 8.39 74.95 8.14L74.95 8.14L74.95 8.14Q74.95 7.89 74.57 7.89ZM81.13 11.88L81.13 11.88L81.13 11.88Q81.33 11.88 81.33 12.15L81.33 12.15L81.33 12.15Q81.33 12.37 81.19 12.58L81.19 12.58L81.19 12.58Q81.01 12.98 80.45 13.34L80.45 13.34L80.45 13.34Q79.82 13.74 79.19 13.74L79.19 13.74L79.19 13.74Q78.09 13.74 77.79 12.76L77.79 12.76L77.79 12.76Q77.44 11.59 78.84 7.80L78.84 7.80L78.84 7.80Q78.05 7.73 77.98 7.53L77.98 7.53L77.98 7.53Q77.96 7.46 77.96 7.39L77.96 7.39L77.96 7.39Q77.96 7.32 78.03 7.23L78.03 7.23L78.03 7.23Q78.09 7.13 78.20 7.04L78.20 7.04L78.20 7.04Q78.44 6.84 78.68 6.84L78.68 6.84L79.22 6.84L79.22 6.84Q79.96 5.11 80.27 4.87L80.27 4.87L80.27 4.87Q80.42 4.76 80.61 4.76L80.61 4.76L80.61 4.76Q80.79 4.76 80.92 4.81L80.92 4.81L80.92 4.81Q81.04 4.86 81.14 4.95L81.14 4.95L81.14 4.95Q81.35 5.15 81.35 5.41L81.35 5.41L81.35 5.41Q81.35 5.54 81.27 5.72L81.27 5.72L80.77 6.82L80.93 6.82L80.93 6.82Q81.35 6.82 81.61 6.82L81.61 6.82L81.61 6.82Q81.61 6.82 82.00 6.81L82.00 6.81L82.00 6.81Q82.13 6.80 82.33 6.80L82.33 6.80L82.33 6.80Q82.52 6.80 82.52 6.95L82.52 6.95L82.52 6.95Q82.52 7.85 80.39 7.85L80.39 7.85L80.34 7.85L79.87 9.05L79.87 9.05Q79.08 11.18 79.08 12.04L79.08 12.04L79.08 12.04Q79.08 12.28 79.19 12.41L79.19 12.41L79.19 12.41Q79.30 12.54 79.60 12.54L79.60 12.54L79.60 12.54Q79.91 12.54 80.15 12.44L80.15 12.44L80.15 12.44Q80.40 12.34 80.58 12.21L80.58 12.21L80.58 12.21Q80.77 12.09 80.90 11.98L80.90 11.98L80.90 11.98Q81.03 11.88 81.13 11.88ZM82.55 11.28L82.55 11.28L82.55 11.28Q82.58 10.68 82.75 10.14L82.75 10.14L82.75 10.14Q82.92 9.60 83.21 9.09L83.21 9.09L83.21 9.09Q83.49 8.58 83.88 8.12L83.88 8.12L83.88 8.12Q84.27 7.67 84.72 7.33L84.72 7.33L84.72 7.33Q85.70 6.60 86.69 6.60L86.69 6.60L86.69 6.60Q87.86 6.60 88.25 7.56L88.25 7.56L88.25 7.56Q88.39 7.89 88.38 8.34L88.38 8.34L88.38 8.34Q88.38 8.78 88.21 9.16L88.21 9.16L88.21 9.16Q88.05 9.54 87.76 9.85L87.76 9.85L87.76 9.85Q87.47 10.17 87.07 10.41L87.07 10.41L87.07 10.41Q86.67 10.66 86.19 10.83L86.19 10.83L86.19 10.83Q85.22 11.17 84.12 11.18L84.12 11.18L84.12 11.18Q84.09 11.28 84.08 11.47L84.08 11.47L84.08 11.47Q84.08 11.66 84.12 11.90L84.12 11.90L84.12 11.90Q84.17 12.13 84.29 12.32L84.29 12.32L84.29 12.32Q84.53 12.73 85.00 12.73L85.00 12.73L85.00 12.73Q85.79 12.73 86.54 12.26L86.54 12.26L86.54 12.26Q86.81 12.11 86.98 11.94L86.98 11.94L86.98 11.94Q87.14 11.77 87.27 11.77L87.27 11.77L87.27 11.77Q87.39 11.77 87.48 11.92L87.48 11.92L87.48 11.92Q87.58 12.07 87.58 12.25L87.58 12.25L87.58 12.25Q87.58 12.61 87.37 12.88L87.37 12.88L87.37 12.88Q86.51 13.74 84.81 13.74L84.81 13.74L84.81 13.74Q83.80 13.74 83.19 13.14L83.19 13.14L83.19 13.14Q82.51 12.46 82.55 11.28ZM86.54 7.51L86.54 7.51L86.54 7.51Q85.83 7.51 85.16 8.49L85.16 8.49L85.16 8.49Q84.60 9.34 84.26 10.50L84.26 10.50L84.26 10.50Q85.40 10.38 86.24 9.60L86.24 9.60L86.24 9.60Q87.01 8.86 87.01 8.18L87.01 8.18L87.01 8.18Q87.01 7.51 86.54 7.51Z"></path></g><!----><g data-v-423bf9ae="" id="403185a0-a1b1-4b88-9849-45350ef46b82" transform="matrix(1.0888888888888888,0,0,1.0888888888888888,-22.883204481336804,-0.44444444444444287)" stroke="none" fill="#ffffff"><path clip-rule="evenodd" d="M30.545 28.822c-1.165 7.217.33 14.85 6.5 19.041C30.758 19.81 45.756 8.664 59.646 1c-16.18 23.046 16.896 23.644 18.777 50.13C80.028 73.71 64.507 91.317 46.639 99c.206-22.825-22.55-25.933-24.838-44.603-.896-7.303 3.261-20.631 8.744-25.575z"></path></g><!----><g data-v-423bf9ae="" id="33ceb457-a99c-4bd0-b888-c2035b71cef9" fill="#ffffff" transform="matrix(0.9908382658251768,0,0,0.9908382658251768,80.66388639466754,57.57244726940567)"><path d="M1.26 2.80L1.26 12.60L1.68 12.60L1.68 8.48L3.36 8.48C4.32 8.48 5.09 8.23 5.66 7.73C6.24 7.22 6.52 6.53 6.52 5.64C6.52 4.76 6.24 4.06 5.66 3.56C5.09 3.05 4.32 2.80 3.36 2.80ZM1.68 3.21L3.36 3.21C4.22 3.21 4.89 3.41 5.37 3.83C5.85 4.24 6.09 4.85 6.09 5.64C6.09 6.44 5.85 7.04 5.37 7.45C4.89 7.87 4.22 8.08 3.36 8.08L1.68 8.08ZM15.90 2.80ZM15.48 2.80L15.48 12.60L15.90 12.60L15.90 8.48L17.46 8.48L20.58 12.60L21.13 12.60L17.93 8.47C18.83 8.41 19.55 8.15 20.08 7.67C20.62 7.20 20.89 6.52 20.89 5.64C20.89 4.71 20.58 4.00 19.98 3.52C19.37 3.04 18.57 2.80 17.58 2.80ZM15.90 3.21L17.58 3.21C18.45 3.21 19.15 3.41 19.67 3.83C20.19 4.24 20.45 4.85 20.45 5.64C20.45 6.44 20.19 7.04 19.67 7.45C19.15 7.87 18.45 8.08 17.58 8.08L15.90 8.08ZM29.95 7.48L34.29 7.48L34.29 7.08L29.95 7.08L29.95 3.21L34.57 3.21L34.57 2.80L29.53 2.80L29.53 12.60L34.57 12.60L34.57 12.19L29.95 12.19ZM43.95 2.80L43.95 12.60L46.33 12.60C47.74 12.60 48.88 12.15 49.73 11.25C50.59 10.35 51.02 9.17 51.02 7.70C51.02 6.23 50.59 5.05 49.73 4.15C48.88 3.25 47.74 2.80 46.33 2.80ZM44.37 3.22L46.33 3.22C47.62 3.22 48.65 3.63 49.42 4.46C50.19 5.28 50.57 6.37 50.57 7.70C50.57 9.09 50.19 10.18 49.43 10.98C48.68 11.78 47.64 12.18 46.33 12.18L44.37 12.18ZM59.91 2.80L59.91 12.60L60.33 12.60L60.33 2.80ZM69.68 7.70C69.68 6.33 70.06 5.22 70.82 4.38C71.58 3.53 72.59 3.11 73.84 3.11C75.03 3.11 76.08 3.54 76.99 4.41L76.99 3.81C76.14 3.06 75.09 2.69 73.84 2.69C72.48 2.69 71.37 3.16 70.51 4.09C69.65 5.03 69.22 6.23 69.22 7.70C69.22 9.17 69.65 10.37 70.51 11.30C71.37 12.24 72.48 12.71 73.84 12.71C75.09 12.71 76.14 12.34 76.99 11.59L76.99 11.03C76.12 11.87 75.07 12.29 73.84 12.29C72.59 12.29 71.58 11.87 70.82 11.03C70.06 10.18 69.68 9.07 69.68 7.70ZM85.39 3.21L87.91 3.21L87.91 12.60L88.33 12.60L88.33 3.21L90.85 3.21L90.85 2.80L85.39 2.80ZM99.57 11.16L97.99 14.69L98.20 14.81L99.99 11.34ZM120.78 2.80L120.78 12.60L125.26 12.60L125.26 12.19L121.20 12.19L121.20 2.80ZM134.22 7.48L138.56 7.48L138.56 7.08L134.22 7.08L134.22 3.21L138.84 3.21L138.84 2.80L133.80 2.80L133.80 12.60L138.84 12.60L138.84 12.19L134.22 12.19ZM151.44 2.45L147.17 12.60L147.66 12.60L148.93 9.52L153.94 9.52L155.22 12.60L155.71 12.60ZM151.44 3.50L153.75 9.07L149.13 9.07ZM164.60 2.80ZM164.18 2.80L164.18 12.60L164.60 12.60L164.60 8.48L166.15 8.48L169.27 12.60L169.82 12.60L166.63 8.47C167.52 8.41 168.24 8.15 168.78 7.67C169.31 7.20 169.58 6.52 169.58 5.64C169.58 4.71 169.28 4.00 168.67 3.52C168.07 3.04 167.27 2.80 166.28 2.80ZM164.60 3.21L166.28 3.21C167.15 3.21 167.84 3.41 168.36 3.83C168.89 4.24 169.15 4.85 169.15 5.64C169.15 6.44 168.89 7.04 168.36 7.45C167.84 7.87 167.15 8.08 166.28 8.08L164.60 8.08ZM185.15 2.80L185.15 11.79L177.66 2.45L177.66 12.60L178.08 12.60L178.08 3.61L185.57 12.95L185.57 2.80ZM195.83 11.16L194.25 14.69L194.46 14.81L196.25 11.34ZM217.46 2.80ZM217.04 2.80L217.04 12.60L217.46 12.60L217.46 8.48L219.02 8.48L222.14 12.60L222.68 12.60L219.49 8.47C220.39 8.41 221.10 8.15 221.64 7.67C222.18 7.20 222.45 6.52 222.45 5.64C222.45 4.71 222.14 4.00 221.54 3.52C220.93 3.04 220.13 2.80 219.14 2.80ZM217.46 3.21L219.14 3.21C220.01 3.21 220.71 3.41 221.23 3.83C221.75 4.24 222.01 4.85 222.01 5.64C222.01 6.44 221.75 7.04 221.23 7.45C220.71 7.87 220.01 8.08 219.14 8.08L217.46 8.08ZM231.50 7.48L235.84 7.48L235.84 7.08L231.50 7.08L231.50 3.21L236.12 3.21L236.12 2.80L231.08 2.80L231.08 12.60L236.12 12.60L236.12 12.19L231.50 12.19ZM248.72 2.45L244.45 12.60L244.94 12.60L246.22 9.52L251.23 9.52L252.50 12.60L252.99 12.60ZM248.72 3.50L251.03 9.07L246.41 9.07ZM260.81 7.70C260.81 6.33 261.19 5.22 261.95 4.38C262.71 3.53 263.71 3.11 264.96 3.11C266.16 3.11 267.21 3.54 268.11 4.41L268.11 3.81C267.26 3.06 266.21 2.69 264.96 2.69C263.61 2.69 262.50 3.16 261.64 4.09C260.78 5.03 260.34 6.23 260.34 7.70C260.34 9.17 260.78 10.37 261.64 11.30C262.50 12.24 263.61 12.71 264.96 12.71C266.21 12.71 267.26 12.34 268.11 11.59L268.11 11.03C267.25 11.87 266.20 12.29 264.96 12.29C263.71 12.29 262.71 11.87 261.95 11.03C261.19 10.18 260.81 9.07 260.81 7.70ZM276.51 3.21L279.03 3.21L279.03 12.60L279.45 12.60L279.45 3.21L281.97 3.21L281.97 2.80L276.51 2.80Z"></path></g></svg>